PathFileType	4	(X/Y/Z)	 s01c0301.trc
DataRate	CameraRate	NumFrames	NumMarkers	Units	OrigDataRate	OrigDataStartFrame	OrigNumFrames
200	200	6	48	mm	200	1001	2000
Frame#	Time	racr			lacr			c7			jug			rlel			rdr			llel			ldr			s2			lic			ric			lasi			rasi			rpsi			lpsi			rgt			lgt			rth1			rth2			rth3			rth4			rlfc			rsh1			rsh2			rsh3			rsh4			rlmal			rmmal			rcal			rtoe			rmt5			lth1			lth2			lth4			lth3			llfc			lsh1			lsh2			lsh3			lsh4			llmal			lmmal			lcal			ltoe			lmt5			SBIKE			LBIKE			RBIKE			
		X1	Y1	Z1	X2	Y2	Z2	X3	Y3	Z3	X4	Y4	Z4	X5	Y5	Z5	X6	Y6	Z6	X7	Y7	Z7	X8	Y8	Z8	X9	Y9	Z9	X10	Y10	Z10	X11	Y11	Z11	X12	Y12	Z12	X13	Y13	Z13	X14	Y14	Z14	X15	Y15	Z15	X16	Y16	Z16	X17	Y17	Z17	X18	Y18	Z18	X19	Y19	Z19	X20	Y20	Z20	X21	Y21	Z21	X22	Y22	Z22	X23	Y23	Z23	X24	Y24	Z24	X25	Y25	Z25	X26	Y26	Z26	X27	Y27	Z27	X28	Y28	Z28	X29	Y29	Z29	X30	Y30	Z30	X31	Y31	Z31	X32	Y32	Z32	X33	Y33	Z33	X34	Y34	Z34	X35	Y35	Z35	X36	Y36	Z36	X37	Y37	Z37	X38	Y38	Z38	X39	Y39	Z39	X40	Y40	Z40	X41	Y41	Z41	X42	Y42	Z42	X43	Y43	Z43	X44	Y44	Z44	X45	Y45	Z45	X46	Y46	Z46	X47	Y47	Z47	X48	Y48	Z48	
1001	5.0050	744.749776	1355.328570	-144.310573	747.698596	1286.272028	-465.799597	725.324358	1400.935727	-305.647193	701.047476	1236.228694	-286.725432	670.590494	1093.735377	-9.273474	736.745888	849.364518	-61.756867	591.742755	1049.443312	-573.369871	720.735087	877.144219	-441.791303	178.821361	1230.329346	-252.017713	334.238612	1209.322920	-435.814201	349.122964	1230.790860	-111.274052	336.166963	1162.285934	-408.090375	365.964466	1178.174727	-136.130722	215.208917	1272.207655	-204.606660	206.347277	1266.623671	-309.700899	294.071784	1118.294642	-67.521016	265.979747	1075.353701	-440.588495	380.520481	1016.226236	-54.238608	435.108573	954.150504	-61.179971	488.908043	882.117974	-71.422846	473.158740	985.813277	-86.781254	507.786357	770.589898	-91.619687	402.829970	712.703791	-55.946474	332.447909	665.532925	-59.409710	253.501581	624.765021	-68.307863	356.288785	627.997507	-99.509455	139.169484	574.533764	-85.031177	173.649729	550.909116	-161.936158	97.969615	595.886810	-139.480288	202.732215	344.273469	-139.659504	131.697747	421.205696	-65.935682	306.974253	954.879122	-437.294142	364.114285	887.016990	-433.447293	406.710520	920.735345	-431.851094	411.847449	818.369479	-413.893475	460.262044	715.922339	-393.771833	397.647619	622.760124	-431.832157	369.713050	540.180819	-427.475127	339.711128	460.612041	-417.407455	421.644884	525.076492	-397.944240	291.093635	342.735457	-405.910559	344.165366	358.946630	-329.264271	238.239191	323.266257	-366.790210	495.038307	219.195131	-370.516639	389.371863	229.259609	-438.662997	-222.451592	893.348917	-250.052164	-11.974894	84.508038	-453.684440	-20.088713	80.949488	-53.568243	
1002	5.0100	744.283816	1356.099546	-144.092015	748.233268	1285.546999	-464.638152	725.283822	1401.043458	-305.653822	701.053667	1236.754396	-285.862304	670.259536	1094.264363	-10.167670	736.761171	849.680313	-62.080935	593.594189	1048.997070	-574.319081	720.965356	876.316193	-442.197339	178.483790	1229.109558	-254.013786	333.587442	1206.769104	-437.258047	348.206148	1231.968530	-112.422277	336.506365	1160.127243	-409.192973	365.428923	1179.155820	-136.860309	214.495181	1271.410203	-206.720458	206.413409	1265.103415	-311.715708	293.893662	1119.638956	-67.855730	264.751351	1073.446862	-440.894379	382.455265	1019.686063	-53.141794	438.503589	958.822578	-59.721104	494.029504	888.094001	-69.718116	475.940687	991.421635	-85.305321	513.418410	776.614648	-90.001637	408.642272	719.683903	-54.948911	337.670023	673.373218	-58.741714	258.301435	633.563699	-68.102474	361.322398	635.274254	-98.403949	143.552570	583.611644	-85.453494	178.463189	560.384641	-162.224833	101.809014	604.476703	-139.851697	209.916950	354.258538	-139.648431	137.918667	430.385202	-66.106227	302.662323	952.396172	-437.575929	358.119050	882.986939	-433.804266	401.667999	915.347421	-432.908318	403.916579	813.021618	-414.404863	451.512817	709.751327	-394.419759	390.757811	615.678432	-432.475508	363.650831	532.745255	-427.910869	334.341341	453.049370	-418.025747	415.328251	518.386195	-397.665960	285.843847	335.229506	-405.798684	341.056757	353.500388	-330.312005	233.653313	316.700706	-366.744725	489.003428	209.042377	-370.352627	383.448988	220.591816	-438.570737	-222.458463	893.345627	-250.068177	-11.985220	84.496146	-453.682078	-20.078292	80.956013	-53.578367	
1003	5.0150	743.657904	1356.989183	-143.636230	748.824092	1285.064677	-463.346691	725.207835	1401.258226	-305.464055	701.131019	1237.133209	-284.990171	669.805112	1094.736701	-10.979039	737.064112	850.118595	-62.842940	595.650644	1048.797655	-575.041800	720.902431	875.287694	-442.813892	178.245605	1228.168911	-256.136375	333.451491	1204.694486	-438.617488	347.362838	1233.157998	-113.662276	336.836353	1158.127414	-410.404549	364.778862	1180.224168	-137.716809	213.796253	1270.757150	-208.979255	206.534547	1263.727496	-313.809825	293.647768	1121.039541	-68.279772	263.374157	1071.930203	-441.249872	383.866223	1023.110584	-52.164486	441.400533	963.564148	-58.138170	498.623354	894.037285	-67.839678	478.264609	997.046933	-83.665745	519.302839	783.024114	-88.146334	414.557757	726.754876	-54.072581	343.136584	681.269917	-58.242317	263.435027	642.204679	-68.001420	366.735859	642.660949	-97.467036	149.038476	591.805092	-85.998259	185.037174	569.452986	-162.767911	106.379357	612.588420	-140.218828	217.541359	363.730950	-139.653338	144.745733	439.186505	-66.152705	298.510989	950.186547	-438.089798	352.122011	879.342021	-434.531890	396.581488	910.626295	-433.892169	396.116547	808.299531	-415.222770	442.536390	703.819960	-395.166431	383.304097	608.789135	-433.379286	357.003556	525.746297	-428.431685	328.513189	445.751995	-418.480180	408.524310	512.061485	-397.701411	279.711156	328.737539	-406.405429	337.378655	348.445729	-331.268116	228.589765	310.886516	-367.088440	481.856066	198.557013	-369.691214	377.077708	212.349907	-438.499706	-222.483401	893.335971	-250.056267	-11.966766	84.499075	-453.687452	-20.064537	80.953523	-53.576953	
1004	5.0200	742.931439	1358.634628	-141.316337	749.354953	1284.821577	-462.011083	725.079012	1401.601122	-305.102616	701.188369	1237.881188	-283.991880	669.324991	1095.246904	-11.795250	736.874535	850.291417	-62.652808	597.904861	1048.484845	-575.540166	721.398701	874.485350	-443.069289	178.079993	1227.423263	-258.225583	333.780380	1203.320001	-440.108075	346.378092	1234.260910	-114.874157	337.314158	1156.542554	-411.574647	364.143190	1181.304007	-138.504766	213.063052	1270.396664	-211.131479	206.791871	1262.598138	-316.106814	293.376998	1122.498742	-68.790886	261.992700	1070.634373	-441.630980	384.805381	1026.579181	-51.209684	443.741721	968.258725	-56.512206	502.927568	900.030464	-65.634874	480.015982	1002.515396	-82.071296	525.288745	789.718160	-86.335122	420.596113	734.070378	-53.238073	349.012021	688.866839	-57.711578	269.048700	650.314038	-67.968915	372.710035	650.285946	-96.840214	154.381373	600.106598	-86.045916	190.327651	577.430798	-162.657792	111.625767	620.276928	-140.542089	225.540436	372.753571	-139.720228	151.973018	447.551691	-66.333240	294.458764	948.296588	-438.804240	346.280253	876.040165	-435.450009	391.357850	906.401971	-435.013533	388.614576	804.048839	-416.259202	433.270615	698.217785	-396.097705	375.248354	602.421643	-434.396386	349.825857	519.105372	-429.114199	322.140920	438.926375	-419.032429	401.277153	506.075343	-398.088533	273.953178	321.714112	-405.897444	333.165995	343.784010	-332.136468	223.399559	305.349368	-366.567195	475.455810	189.695385	-370.314212	370.213576	204.605038	-438.443839	-222.542665	893.290361	-250.213951	-11.966675	84.491544	-453.671551	-20.054437	80.967331	-53.568469	
1005	5.0250	742.121945	1359.323817	-140.591623	749.737213	1284.827186	-460.677280	724.932817	1401.994843	-304.555315	701.297398	1238.577573	-283.013576	668.809000	1095.736586	-12.426045	736.867385	850.593264	-62.848669	600.345091	1048.352685	-575.819505	721.939369	873.683072	-443.218533	177.960386	1226.655038	-260.249696	334.434861	1202.336955	-441.654338	345.291762	1235.383664	-116.104097	337.812688	1155.228276	-412.652641	363.442630	1182.516031	-139.430458	212.391104	1270.106753	-213.404591	207.058697	1261.647951	-318.428752	293.099598	1124.024771	-69.325602	260.666703	1069.604930	-442.016251	385.440424	1029.728971	-50.413046	445.715271	972.905546	-55.045065	506.547311	905.962069	-63.282183	481.382025	1007.899644	-80.503017	531.269862	796.604648	-84.581178	426.775683	741.386351	-52.372372	355.109452	696.368854	-57.231471	275.137614	657.971471	-67.949167	378.644749	657.707162	-96.247320	160.750949	607.563422	-86.242201	197.015860	585.102247	-163.144445	117.325506	627.427932	-140.984429	234.126478	381.156797	-139.614143	159.908833	455.355134	-66.355095	290.465747	946.812334	-439.714848	340.573943	873.355745	-436.654043	386.174809	902.411114	-435.956028	381.157497	800.279909	-417.574854	423.697420	693.017525	-397.306211	366.689278	596.684338	-435.429198	342.089819	513.410207	-429.940586	315.093073	432.789650	-419.632957	393.845051	500.859308	-399.168919	268.107314	315.139354	-405.732610	328.453715	339.516588	-332.920921	217.692690	300.400796	-366.711512	467.875383	180.928738	-370.356341	362.963359	197.330100	-438.441767	-222.579917	893.284637	-250.205476	-11.951350	84.491146	-453.666202	-20.033189	80.960617	-53.565720	
1006	5.0300	741.329157	1360.052723	-139.653889	750.205648	1285.217735	-459.369647	724.727954	1402.405828	-303.880601	701.396877	1239.443126	-281.982125	668.172161	1096.244767	-12.966588	736.813105	850.904140	-62.927014	602.957812	1048.211385	-575.899898	722.612906	873.004205	-443.304998	177.709141	1226.120918	-262.528908	335.306829	1201.672618	-442.950988	344.104830	1236.437098	-117.245112	338.443265	1154.199656	-413.791946	362.670342	1183.847898	-140.370351	211.734166	1269.882530	-215.661551	207.486358	1260.720326	-320.810251	292.670364	1125.652207	-69.930579	259.452692	1068.803080	-442.435357	385.822499	1032.993756	-49.822371	447.332440	977.507680	-53.483496	509.763661	911.877571	-61.240255	482.508011	1013.191192	-78.973521	537.326741	803.709240	-82.782008	433.035543	748.707166	-51.348661	361.421164	703.633979	-56.671671	281.500349	665.225583	-67.966636	385.261214	665.059046	-95.593935	167.708017	614.540756	-86.409507	204.176759	592.317638	-163.704411	123.687397	634.094294	-141.159237	243.048782	389.026585	-139.487196	168.291925	462.594094	-66.347855	286.646812	945.583828	-440.734558	335.110590	870.962566	-438.046900	381.230754	899.016175	-437.314236	373.216079	797.152333	-419.980610	414.033288	687.888340	-398.644325	357.507159	591.856959	-436.616869	333.547722	508.419150	-431.114321	307.335309	427.521326	-420.377827	385.504733	496.268266	-400.254284	261.509922	309.457888	-405.830768	323.276751	335.644818	-333.625338	211.525280	296.140948	-367.218954	459.901758	172.493867	-370.428138	355.123851	190.457617	-438.505069	-222.617676	893.281500	-250.204552	-11.961819	84.498411	-453.677659	-20.034104	80.960879	-53.555283	
